<?xml version="1.0" encoding="UTF-8"?>
<svg width="239px" height="48px" viewBox="0 0 239 48" version="1.1" xmlns="http://www.w3.org/2000/svg" xmlns:xlink="http://www.w3.org/1999/xlink">
    <!-- Generator: Sketch 49 (51002) - http://www.bohemiancoding.com/sketch -->
    <title>Group-8</title>
    <desc>Created with Sketch.</desc>
    <defs></defs>
    <g id="Test-front-DEFAULT" stroke="none" stroke-width="1" fill="none" fill-rule="evenodd">
        <g id="A02_Desktop-Footer-Expanded" transform="translate(-104.000000, -1297.000000)">
            <g id="temp" transform="translate(0.000000, 767.000000)">
                <g id="Footer">
                    <rect id="Rectangle-9" fill="#00000D" x="1" y="0" width="1280" height="624"></rect>
                    <g id="Group-3" transform="translate(0.000000, 486.000000)">
                        <rect id="Rectangle-11" fill="#FFFFFF" x="0" y="1" width="448" height="137"></rect>
                        <g id="Group-8" transform="translate(104.000000, 44.000000)">
                            <g id="Group" fill="#8E989C">
                                <path d="M56.0794066,29.050849 C56.0794066,37.1171536 61.1860685,41.4438886 66.9594505,41.4438886 C73.6205779,41.4438886 76.0627889,36.9715655 76.8776689,34.1849364 L83.0202363,36.8235709 C81.3176109,41.8830594 76.2109489,47.8244992 66.9594505,47.8244992 C56.5979665,47.8244992 48.9737991,39.7557882 48.9737991,29.050849 C48.9737991,18.0523272 56.7449121,10.3530009 66.8853705,10.3530009 C76.3603233,10.3530009 81.2435309,16.2186386 82.7239164,21.5705065 L76.4331889,24.2127507 C75.5442289,20.7643574 72.953858,16.7324083 66.8853705,16.7324083 C61.2601485,16.7324083 56.0794066,20.8389562 56.0794066,29.050849" id="Fill-442"></path>
                                <path d="M148.529419,18.4182226 C147.492299,18.2726345 146.456394,18.1980356 145.495783,18.1980356 C139.647106,18.1980356 135.725724,21.2782474 135.725724,29.0509693 L135.725724,46.7236844 L128.769491,46.7236844 L128.769491,11.4516499 L135.57635,11.4516499 L135.57635,17.6120734 C138.16915,12.1856066 142.609092,10.8668909 146.235368,10.8668909 C147.195979,10.8668909 148.159019,11.0124791 148.529419,11.0858747 L148.529419,18.4182226 L148.529419,18.4182226 Z" id="Fill-443"></path>
                                <path d="M29.8649251,29.050849 C29.8649251,20.9123519 24.6829687,16.5122213 18.7626412,16.5122213 C12.8410993,16.5122213 7.66035729,20.9123519 7.66035729,29.050849 C7.66035729,37.2651482 12.8410993,41.6640756 18.7626412,41.6640756 C24.6829687,41.6640756 29.8649251,37.2651482 29.8649251,29.050849 M36.9705325,29.050849 C36.9705325,39.8315902 29.4204451,47.8244992 18.7626412,47.8244992 C8.10483726,47.8244992 0.555964293,39.8315902 0.555964293,29.050849 C0.555964293,18.3459098 8.10483726,10.3530009 18.7626412,10.3530009 C29.4204451,10.3530009 36.9705325,18.3459098 36.9705325,29.050849" id="Fill-444"></path>
                                <path d="M107.104371,11.4516499 L114.80019,11.4516499 L114.80019,17.6854691 L107.104371,17.6854691 L107.104371,36.0175421 C107.104371,39.2457484 108.436597,40.8556403 112.062873,40.8556403 C112.950619,40.8556403 114.209979,40.7100522 114.80019,40.5644641 L114.80019,46.4276953 C114.209979,46.6490855 112.433273,47.0906628 110.065142,47.0906628 C103.995441,47.0906628 100.146924,43.4244888 100.146924,37.0450815 L100.146924,17.6854691 L93.3376366,17.6854691 L93.3376366,11.4516499 L95.2625021,11.4516499 C99.1098041,11.4516499 100.739564,9.10659801 100.739564,6.02518302 L100.739564,0.306336688 L107.104371,0.306336688 L107.104371,11.4516499 L107.104371,11.4516499 Z" id="Fill-445"></path>
                                <path d="M231.710445,25.4577098 C231.5635,20.3994245 228.233543,16.4396678 221.940387,16.4396678 C216.09414,16.4396678 212.543157,20.9131942 212.244409,25.4577098 L231.710445,25.4577098 L231.710445,25.4577098 Z M238.743187,36.6776218 C236.744242,42.9102379 231.043726,47.8241382 222.756481,47.8241382 C213.207449,47.8241382 204.843696,40.9285547 204.843696,28.9782956 C204.843696,17.9051748 212.912343,10.3526399 221.867522,10.3526399 C232.820431,10.3526399 238.964213,17.8317792 238.964213,28.8315042 C238.964213,29.7122523 238.890133,30.5917971 238.817267,31.0321712 L212.023383,31.0321712 C212.170329,37.3381829 216.759645,41.7371103 222.756481,41.7371103 C228.527435,41.7371103 231.414125,38.5835029 232.747565,34.6249494 L238.743187,36.6776218 L238.743187,36.6776218 Z" id="Fill-446"></path>
                                <path d="M185.550472,25.4577098 C185.401097,20.3994245 182.071141,16.4396678 175.780413,16.4396678 C169.931737,16.4396678 166.380755,20.9131942 166.084435,25.4577098 L185.550472,25.4577098 L185.550472,25.4577098 Z M192.580785,36.6776218 C190.581839,42.9102379 184.883752,47.8241382 176.594079,47.8241382 C167.047475,47.8241382 158.683722,40.9285547 158.683722,28.9782956 C158.683722,17.9051748 166.751155,10.3526399 175.705119,10.3526399 C186.658028,10.3526399 192.804239,17.8317792 192.804239,28.8315042 C192.804239,29.7122523 192.72773,30.5917971 192.654865,31.0321712 L165.863409,31.0321712 C166.010355,37.3381829 170.599671,41.7371103 176.594079,41.7371103 C182.367461,41.7371103 185.254152,38.5835029 186.585163,34.6249494 L192.580785,36.6776218 L192.580785,36.6776218 Z" id="Fill-447"></path>
                            </g>
                            <g id="Group-3" transform="translate(48.577046, 9.625662)">
                                <path d="M26.675842,2.63911583 C24.4242959,1.45876905 21.651761,0.727218751 18.3084458,0.727218751 C13.5782559,0.727218751 9.31926341,2.44419618 6.16904197,5.34753643 C5.72213315,5.7638463 5.69784462,6.46050358 6.11682165,6.90328402 C6.33541836,7.1330967 6.63052391,7.25101105 6.92684389,7.25101105 C7.19887535,7.25101105 7.47212123,7.15234802 7.68707466,6.95381874 C10.5239742,4.31879382 14.1963988,2.92668248 18.3084458,2.92668248 C21.0651932,2.92668248 23.5244061,3.47895483 25.615648,4.57026423 C25.7808099,4.6580984 25.9569017,4.69900746 26.1329935,4.69900746 C26.5313253,4.69900746 26.9162984,4.48363328 27.1154643,4.11063888 C27.4008544,3.57280503 27.2186905,2.92186965 26.675842,2.63911583" id="Fill-448" fill="#1A1918"></path>
                                <path d="M34.1468702,11.9450854 C33.8529791,10.8826529 33.4242867,9.79856278 32.852292,8.74455281 L32.852292,8.74214639 C32.6506972,8.37276162 32.268153,8.16340347 31.8722501,8.16340347 C31.6949438,8.16340347 31.5152088,8.20671895 31.3488324,8.29575632 C30.812056,8.58091656 30.6092469,9.23786797 30.8897793,9.770889 C31.0573701,10.0789102 31.2176744,10.4085891 31.3597622,10.7262359 L29.1604365,11.6502995 C29.0389938,11.3855938 28.9090502,11.1293105 28.7730345,10.8778401 C28.7523893,10.8405407 28.7329585,10.802038 28.7123132,10.7635354 C28.5107185,10.4001666 28.1306031,10.1944181 27.7395579,10.1944181 C27.5586084,10.1944181 27.37523,10.2377336 27.2039959,10.3303806 C26.6672196,10.6239633 26.471697,11.2929468 26.7668025,11.8235614 C26.825095,11.9294437 26.8797441,12.0293099 26.93075,12.1412082 C27.4092339,13.1001648 27.7116261,14.0097898 27.8561428,14.5861263 L34.1468702,11.9450854 L34.1468702,11.9450854 Z" id="Fill-453" fill="#DD3B41"></path>
                                <path d="M7.61032293,17.4359238 C8.22360814,11.9444838 11.3871883,8.64047534 15.25635,7.5299146 C15.8465611,7.36026231 16.185386,6.74903279 16.0141519,6.16668025 C15.8732785,5.68539716 15.4300129,5.37376636 14.9478857,5.37376636 C14.845874,5.37376636 14.7426477,5.38700164 14.6394215,5.41708183 C9.54126051,6.88138564 6.09229024,11.2538425 5.41221159,17.1146674 C5.34177488,17.7186776 5.77896829,18.2637307 6.38861022,18.3335168 C6.43111514,18.3383296 6.47362005,18.340736 6.51612497,18.340736 C7.07233214,18.340736 7.54474392,17.9966186 7.61032293,17.4359238" id="Fill-454" fill="#009D49"></path>
                                <path d="M18.3824044,34.0176905 C18.988403,34.0176905 19.5846862,33.9852039 20.156681,33.9190275 C20.7663229,33.8504446 21.2035163,33.3053915 21.134294,32.7037877 C21.0699294,32.1394832 20.5890167,31.726783 20.0315951,31.726783 C19.991519,31.726783 19.9490141,31.7291894 19.9065092,31.7364086 C19.424382,31.7893498 18.9167519,31.8182268 18.3824044,31.8182268 C14.4343049,31.8182268 10.7970986,29.7944314 8.89287839,25.9333378 L8.90380823,25.9574019 C8.71071447,25.569969 8.31602597,25.343766 7.90676435,25.343766 C7.74281682,25.343766 7.57522601,25.378659 7.41735061,25.4568675 C6.86721557,25.7239796 6.6413323,26.3845407 6.91093491,26.9283906 C9.11390395,31.3670239 13.4020427,34.0176905 18.3824044,34.0176905" id="Fill-455" fill="#1A1918"></path>
                                <path d="M28.3006227,24.5587933 C27.942367,25.7860651 27.4845284,26.6042464 27.4845284,26.6042464 L31.5504271,28.3537104 C30.7962685,29.8119982 29.768864,31.1619973 28.5556522,32.278574 C28.1051001,32.6900711 28.0783828,33.3855252 28.4961454,33.8319152 C28.7147421,34.0665407 29.011062,34.1844551 29.3110253,34.1844551 C29.5794135,34.1844551 29.8514449,34.0881985 30.0639695,33.8908724 C30.0651839,33.8908724 30.0651839,33.8908724 30.0651839,33.888466 C30.0700416,33.888466 30.0736849,33.8836532 30.0773282,33.8788403 C30.0797571,33.8788403 30.0809715,33.8764339 30.0809715,33.8740275 C30.0834003,33.8740275 30.0834003,33.8740275 30.0834003,33.8716211 C30.0858292,33.8716211 30.0870436,33.8716211 30.088258,33.8692147 C30.0894725,33.8692147 30.0894725,33.8668082 30.0906869,33.8668082 C30.0919013,33.8644018 30.0943302,33.8644018 30.0955446,33.8619954 C30.096759,33.8619954 30.096759,33.8619954 30.0979734,33.859589 C30.0991879,33.859589 30.0991879,33.8583858 30.1016167,33.8583858 L30.1040456,33.8559794 C30.1064744,33.853573 30.1064744,33.853573 30.1076889,33.8511665 C30.1089033,33.8511665 30.1101177,33.8487601 30.1101177,33.8487601 C30.1125466,33.8463537 30.113761,33.8463537 30.113761,33.8439473 L30.1186187,33.8439473 C30.1198331,33.8415409 30.1210475,33.8391345 30.122262,33.8391345 L30.122262,33.8367281 C30.1283341,33.8319152 30.1331918,33.8271024 30.1392639,33.8222896 L30.1404784,33.8198831 C30.1429072,33.8174767 30.1441216,33.8174767 30.1453361,33.8150703 L30.1477649,33.8150703 C32.2827261,31.8273711 33.6926749,29.4269717 34.4431902,27.1974278 L28.3006227,24.5587933 L28.3006227,24.5587933 Z" id="Fill-456" fill="#1A1918"></path>
                                <path d="M22.0244684,35.6462322 C21.9516028,35.6462322 21.8775228,35.6534514 21.8022284,35.6702963 C20.7189603,35.8856705 19.5688987,35.9963656 18.3824044,35.9963656 C15.4969278,35.9963656 12.8373345,35.3105372 10.4752757,33.9521157 C10.2991839,33.8510462 10.108519,33.8017147 9.91906849,33.8017147 C9.53652425,33.8017147 9.16369542,33.9990408 8.9584574,34.3491742 C8.64999316,34.874976 8.83094266,35.5475691 9.35921803,35.8531839 C11.9702343,37.3547871 15.0342314,38.1982357 18.3824044,38.1982357 C19.760778,38.1982357 21.0480698,38.0670861 22.2454939,37.8252414 C22.8454205,37.7025142 23.2340368,37.122568 23.1113798,36.5269802 C23.0045103,36.0059913 22.5418139,35.6462322 22.0244684,35.6462322" id="Fill-457" fill="#1A1918"></path>
                                <path d="M1.33890483,25.7032845 C1.48827925,26.1737387 1.92547267,26.4733374 2.39788444,26.4733374 C2.50718279,26.4733374 2.61891,26.4576957 2.72942278,26.4228027 C3.31356176,26.2423215 3.64024239,25.6262792 3.45807847,25.0451298 C2.90065687,23.2752113 2.61769557,21.3837687 2.61769557,19.4249465 C2.61769557,17.3012849 2.93708965,15.2738799 3.56980568,13.4028918 C3.76411386,12.8265553 3.45079191,12.2044969 2.86786736,12.0107805 C2.75128245,11.9722779 2.63348311,11.9530265 2.5168982,11.9530265 C2.05298741,11.9530265 1.6206517,12.2429996 1.46520515,12.7026249 C0.77176782,14.7528909 0.397724565,17.0101086 0.397724565,19.4249465 C0.397724565,21.6424584 0.729262905,23.7625104 1.33890483,25.7032845" id="Fill-458" fill="#0079B3"></path>
                            </g>
                            <g id="Group-2" transform="translate(0.000000, 9.625662)">
                                <path d="M18.7631269,0.727339072 C13.9114945,0.727339072 9.69500686,2.39257857 6.54964313,5.20567824 C6.0978766,5.61476886 6.06265824,6.30781652 6.47313428,6.75781621 C6.69294541,6.99725454 6.9941231,7.11998173 7.29772964,7.11998173 C7.56247454,7.11998173 7.82964829,7.02492832 8.04217287,6.8348215 C10.8948599,4.27800508 14.6025029,2.9268028 18.7631269,2.9268028 C19.3751977,2.9268028 19.8731125,2.43469084 19.8731125,1.82586773 C19.8731125,1.21945103 19.3751977,0.727339072 18.7631269,0.727339072" id="Fill-461" fill="#009D49"></path>
                                <path d="M1.71962743,12.4785877 C0.961825513,14.6034525 0.556207178,16.9412851 0.556207178,19.4247059 C0.556207178,21.5640092 0.852527159,23.5926175 1.41237762,25.4720279 C1.55810875,25.9448886 1.99894545,26.2589258 2.47621493,26.2589258 C2.57944115,26.2589258 2.68509622,26.2432841 2.7907513,26.2120007 C3.37853356,26.039942 3.7149296,25.4287124 3.54126666,24.8451567 C3.03363653,23.1414146 2.77617819,21.3185548 2.77617819,19.4247059 C2.77617819,17.2324614 3.12471849,15.1424896 3.81329812,13.210138 C4.01732171,12.6374111 3.71371518,12.0093367 3.13564833,11.8071978 C3.01299129,11.7638823 2.88790539,11.7434277 2.76646278,11.7434277 C2.30862412,11.7434277 1.87993168,12.0261816 1.71962743,12.4785877" id="Fill-462" fill="#DD3B41"></path>
                                <path d="M34.8750402,10.3083619 C32.8457341,6.30528978 29.442912,3.27561272 25.1377713,1.77400947 C25.0175431,1.7318972 24.8936716,1.71264588 24.772229,1.71264588 C24.3143903,1.71264588 23.8856979,1.9966029 23.7253937,2.4478058 C23.5213701,3.02053268 23.8249766,3.64981032 24.4030434,3.85074601 C28.0936845,5.13817828 31.1078902,7.78042245 32.8894534,11.2925858 C33.084976,11.6776123 33.4760212,11.8990025 33.882854,11.8990025 C34.0504448,11.8990025 34.2204645,11.8617031 34.3807687,11.7822914 C34.9260461,11.5091632 35.148286,10.8510086 34.8750402,10.3083619" id="Fill-463" fill="#1A1918"></path>
                                <path d="M24.0299717,5.74579819 C22.3868531,5.04312487 20.6150054,4.68577218 18.7630055,4.68577218 C15.0602202,4.68577218 11.6841155,6.11999579 9.25526315,8.7225341 C8.83871498,9.16892417 8.86664679,9.86437824 9.31719889,10.2770785 C9.52972347,10.4732013 9.8005405,10.569458 10.0701431,10.569458 C10.3676775,10.569458 10.6652119,10.4503404 10.8838086,10.2181213 L10.8668067,10.2349662 C12.9131147,8.03189287 15.7415132,6.88643911 18.7630055,6.88643911 C20.325972,6.88643911 21.8367181,7.19205387 23.2150918,7.79365774 L23.1519416,7.76718717 C23.2952439,7.82614435 23.4434039,7.85622454 23.589135,7.85622454 C24.0190419,7.85622454 24.4270891,7.60836375 24.609253,7.19205387 C24.8521382,6.63376549 24.592251,5.98643973 24.0299717,5.74579819" id="Fill-465" fill="#0079B3"></path>
                                <path d="M21.9723695,35.7308177 C21.9104338,35.7308177 21.8460692,35.7356305 21.782919,35.7476626 C20.8077348,35.9137052 19.7912601,35.9967266 18.7626412,35.9967266 C15.681642,35.9967266 12.877532,35.2675827 10.4292489,33.8297494 C10.2519427,33.7238672 10.0564201,33.6745357 9.86454076,33.6745357 C9.4856398,33.6745357 9.11645425,33.8670489 8.90878737,34.2123695 C8.59667985,34.7345617 8.76791394,35.4047484 9.29133161,35.7163792 L9.29011719,35.7163792 C9.29133161,35.7187856 9.29376046,35.7187856 9.29618932,35.721192 L9.29618932,35.721192 L9.29618932,35.721192 C11.9958587,37.308223 15.2068014,38.1985967 18.7626412,38.1985967 C19.933348,38.1985967 21.0664076,38.1023401 22.1557479,37.9134365 L22.16182,37.9134365 C22.7653898,37.8111638 23.1697937,37.2420466 23.065353,36.6452555 C22.9718422,36.1086249 22.5030737,35.7308177 21.9723695,35.7308177" id="Fill-466" fill="#1A1918"></path>
                                <path d="M35.747241,21.8974181 C35.6828764,21.8865892 35.6197263,21.8817764 35.5577905,21.8817764 C35.0270863,21.8817764 34.5583178,22.2607868 34.464807,22.7938078 C33.7567966,26.866666 31.7979272,30.2789631 28.799509,32.658908 C28.3210251,33.0403249 28.2445163,33.7333725 28.6270605,34.2050299 C28.8468716,34.4781581 29.1686946,34.6189334 29.4941608,34.6189334 C29.7382604,34.6189334 29.9823601,34.5395217 30.1863837,34.3770886 L30.1888125,34.3770886 C33.5467008,31.7071707 35.846824,27.8027616 36.6519885,23.1704119 L36.6532029,23.1692087 L36.6532029,23.1631926 C36.6556318,23.1523637 36.6580606,23.1439413 36.6592751,23.1331124 L36.6556318,23.1403317 C36.741856,22.5519631 36.3423098,21.9996907 35.747241,21.8974181" id="Fill-467" fill="#1A1918"></path>
                                <path d="M15.9327854,33.9447761 C16.0105086,33.961621 16.0882319,33.9700435 16.1647408,33.9700435 C16.6772286,33.9700435 17.1387105,33.6163004 17.2492233,33.0989211 C17.3767381,32.5069429 16.9954082,31.9233871 16.3966961,31.7946439 L16.3760509,31.7898311 C12.2992223,30.9223183 8.92918973,27.7963846 7.94914783,22.6286074 L7.94914783,22.6274042 C7.84956488,22.099196 7.38322524,21.7310145 6.85859314,21.7310145 C6.7917997,21.7310145 6.72257741,21.7370305 6.6521407,21.7502658 C6.04978532,21.8621641 5.6538824,22.4372974 5.76682403,23.0340884 C6.85130658,28.7553412 10.651246,32.8330122 15.9327854,33.9447761" id="Fill-468" fill="#1A1918"></path>
                                <path d="M28.9689215,28.5209563 C29.3490368,28.5209563 29.7194368,28.3260367 29.9258893,27.9783096 C31.3589121,25.5718942 32.085139,22.6950245 32.085139,19.4247059 C32.085139,17.2180229 31.7414564,15.1641473 31.0638066,13.3220363 C30.899859,12.8756462 30.4748099,12.5977052 30.0218289,12.5977052 C29.8955286,12.5977052 29.7667994,12.6181598 29.6417135,12.6638817 C29.0648611,12.8720366 28.7685411,13.5049239 28.9774224,14.0740411 L28.9774224,14.0752443 C29.5469883,15.6213663 29.865168,17.4105361 29.865168,19.4247059 C29.865168,22.4230995 29.1753739,24.9113331 28.0119536,26.8629361 C27.702275,27.3863314 27.8783668,28.0577213 28.4054277,28.3657425 C28.5827339,28.4692184 28.7770421,28.5209563 28.9689215,28.5209563" id="Fill-469" fill="#1A1918"></path>
                            </g>
                            <g id="Group-4" transform="translate(93.279994, 0.000000)">
                                <path d="M7.37443856,7.19578382 C7.28214217,7.79618447 7.69869034,8.35687928 8.30468899,8.44832306 C8.36176702,8.45674552 8.41641619,8.46155835 8.4722798,8.46155835 C9.01269944,8.46155835 9.48511121,8.07051584 9.56890661,7.52425953 C9.64298661,7.04658606 9.67941939,6.54244202 9.67941939,6.0250627 L9.67941939,2.50808651 L13.8242559,2.50808651 L13.8242559,0.306216367 L7.45944839,0.306216367 L7.45944839,6.0250627 C7.45944839,6.42813729 7.43151658,6.8191798 7.37443856,7.1933774" id="Fill-449" fill="#1A1918"></path>
                                <path d="M0.0576424262,11.4516499 L0.0576424262,17.6854691 L6.86571544,17.6854691 C7.48021507,17.6854691 7.97691537,17.1921539 7.97691537,16.5857373 C7.97691537,15.9781173 7.48021507,15.4872086 6.86571544,15.4872086 L2.27882786,15.4872086 L2.27882786,11.4516499 L0.0576424262,11.4516499 L0.0576424262,11.4516499 Z" id="Fill-450" fill="#0079B3"></path>
                                <path d="M10.4259272,42.0688347 C9.53818163,40.7814024 9.08762953,39.0920988 9.08762953,37.0442392 L9.08762953,30.4410352 C9.08762953,29.8334153 8.58971481,29.3401001 7.9764296,29.3401001 C7.36435882,29.3401001 6.8664441,29.8334153 6.8664441,30.4410352 L6.8664441,37.0442392 C6.8664441,39.6082749 7.45665521,41.6862146 8.59335809,43.3117483 C8.80831151,43.6221759 9.15685182,43.7918282 9.51024983,43.7918282 C9.72641769,43.7918282 9.94501439,43.7304646 10.1368937,43.5981117 C10.642095,43.2551975 10.773253,42.5717755 10.4259272,42.0688347" id="Fill-470" fill="#DD3B41"></path>
                                <path d="M21.5206816,40.564825 L21.5206816,40.564825 C21.03734,40.6851458 20.1095184,40.801857 19.301925,40.8415628 L19.301925,44.6990468 C18.6327762,44.8037259 17.7753913,44.8891536 16.7844196,44.8891536 C16.6314019,44.8891536 16.3022924,44.8819344 16.2889337,44.8819344 C15.6938649,44.8819344 15.2008079,45.3475757 15.1789482,45.9395539 C15.1570886,46.5459706 15.5954964,47.0561307 16.2075672,47.0789917 C16.3982321,47.0862109 16.5901114,47.0910237 16.7844196,47.0910237 C19.1525506,47.0910237 20.9292561,46.6494465 21.5206816,46.4280563 L21.5206816,40.564825 L21.5206816,40.564825 Z" id="Fill-471" fill="#1A1918"></path>
                                <path d="M12.7136631,17.472381 C12.1003779,17.472381 11.6024632,17.964493 11.6024632,18.5721129 L11.6024632,31.5017831 C11.6024632,32.109403 12.1003779,32.6027182 12.7136631,32.6027182 C13.3269483,32.6027182 13.8248631,32.109403 13.8248631,31.5017831 L13.8248631,18.5721129 C13.8248631,17.964493 13.3269483,17.472381 12.7136631,17.472381" id="Fill-472" fill="#009D49"></path>
                                <path d="M13.9286965,11.4516499 C13.3154113,11.4516499 12.818711,11.944965 12.818711,12.5525849 C12.818711,13.1602048 13.3154113,13.65352 13.9286965,13.65352 L19.3013178,13.65352 L19.3013178,17.6854691 L21.5200744,17.6854691 L21.5200744,11.4516499 L13.9286965,11.4516499 L13.9286965,11.4516499 Z" id="Fill-473" fill="#1A1918"></path>
                            </g>
                            <g id="Group-5" transform="translate(128.729172, 10.828870)">
                                <path d="M1.14738983,14.3797762 C0.535319048,14.3797762 0.0398331778,14.8718882 0.0398331778,15.4795081 L0.0398331778,28.6799001 C0.0398331778,29.28752 0.535319048,29.7784287 1.14738983,29.7784287 C1.76188946,29.7784287 2.25737533,29.28752 2.25737533,28.6799001 L2.25737533,15.4795081 C2.25737533,14.8718882 1.76188946,14.3797762 1.14738983,14.3797762" id="Fill-451" fill="#009D49"></path>
                                <path d="M5.8841376,28.3717586 C5.27206682,28.3717586 4.77658095,28.8638705 4.77658095,29.4702872 L4.77658095,33.6959527 L0.0391045221,33.6959527 L0.0391045221,35.8954165 L6.99655195,35.8954165 L6.99655195,29.4702872 C6.99655195,28.8638705 6.49863723,28.3717586 5.8841376,28.3717586" id="Fill-452" fill="#0079B3"></path>
                                <path d="M17.5065602,0.0375400811 L17.4919871,0.0375400811 L17.4822717,0.0375400811 L17.4713419,0.0375400811 L17.468913,0.0375400811 L17.4664841,0.0375400811 L17.4640553,0.0375400811 L17.4616264,0.0375400811 L17.4567687,0.0375400811 L17.4543399,0.0375400811 L17.451911,0.0375400811 L17.4494822,0.0375400811 C13.8559952,0.0519785739 9.47556006,1.37550707 6.89247563,6.69007561 C6.6265163,7.23753513 6.8584717,7.89448655 7.4110356,8.15798904 C7.56526772,8.23258792 7.7316441,8.26627773 7.89316278,8.26627773 C8.00731884,8.26627773 8.12026047,8.24822962 8.22955883,8.21574301 C5.93672225,10.457319 4.77694527,13.8238942 4.77694527,18.2216185 L4.77694527,22.1380596 C4.77694527,22.7456795 5.27243114,23.2377915 5.88450192,23.2377915 C6.49900156,23.2377915 6.99691628,22.7456795 6.99691628,22.1380596 L6.99691628,18.2216185 C6.99691628,14.1896694 8.05225261,11.4198852 9.8860361,9.68846927 C10.3293016,9.26975298 10.3718066,8.55384438 9.94918626,8.11226715 C9.73180398,7.88365768 9.43912727,7.76814973 9.14523615,7.76814973 C9.02015025,7.76814973 8.89870764,7.78740106 8.77969387,7.82951333 C8.82341321,7.77175936 8.86106043,7.71039576 8.89384993,7.64301613 C10.635337,4.05625389 13.5341723,2.23700381 17.5065602,2.23700381 L17.5806402,2.23700381 L17.5806402,5.18365953 C17.3073943,5.17523708 17.0341484,5.17042425 16.7669747,5.17042425 L16.7426862,5.17042425 C16.1306154,5.17042425 15.6327007,5.66373942 15.6351295,6.27015611 C15.6351295,6.87897922 16.1330442,7.36988798 16.745115,7.36988798 C17.708155,7.36988798 18.7634913,7.44328365 19.8006112,7.58887178 L19.8006112,0.257727095 C19.4302112,0.183128216 18.4671713,0.0375400811 17.5065602,0.0375400811" id="Fill-459" fill="#1A1918"></path>
                                <path d="M6.87802396,0.62278032 L0.0395902926,0.62278032 L0.0395902926,8.14764145 C0.0395902926,8.75526136 0.535076163,9.24737332 1.14714694,9.24737332 C1.76164658,9.24737332 2.25713245,8.75526136 2.25713245,8.14764145 L2.25713245,2.82465046 L6.87802396,2.82465046 L6.87802396,0.62278032 L6.87802396,0.62278032 Z" id="Fill-486" fill="#DD3B41"></path>
                            </g>
                            <g id="Group-7" transform="translate(204.023594, 9.625662)">
                                <path d="M34.8359356,16.7849884 C34.4108865,11.8422111 32.6159646,7.77055615 29.6296907,4.94903403 C29.4135229,4.74930154 29.1414914,4.6482321 28.8658167,4.6482321 C28.5743544,4.6482321 28.2804633,4.76374004 28.0618666,4.9911463 C27.6392463,5.43152033 27.6562482,6.1281776 28.1019426,6.54569068 C30.6728828,8.96654463 32.2382781,12.5737614 32.62568,16.9762985 C32.6754715,17.5478221 33.1588131,17.9797737 33.7308078,17.9797737 C33.7611685,17.9797737 33.7951724,17.9785705 33.8279619,17.9761641 C34.4376039,17.923223 34.8905848,17.3902019 34.8359356,16.7849884" id="Fill-460" fill="#1A1918"></path>
                                <path d="M5.97424802,5.88681413 C5.55162772,6.32718816 5.57105853,7.02143902 6.01675293,7.44015531 C6.23049194,7.64229421 6.50616667,7.74216045 6.78062698,7.74216045 C7.07451811,7.74216045 7.36840924,7.62785571 7.58700595,7.40044945 C10.3522543,4.51515732 13.9943183,2.92692312 17.8428348,2.92692312 C18.4573344,2.92692312 18.9540347,2.43481116 18.9540347,1.82598805 C18.9540347,1.21957135 18.4573344,0.727459392 17.8428348,0.727459392 C13.3652456,0.727459392 9.10989634,2.61408911 5.97424802,5.88681413" id="Fill-474" fill="#1A1918"></path>
                                <path d="M3.87754126,30.4244309 C4.08885141,30.7505002 4.44710713,30.9273718 4.81022055,30.9273718 C5.016673,30.9273718 5.22433987,30.870821 5.41257592,30.7529066 C5.92749261,30.4220245 6.07443817,29.7434154 5.74168541,29.2320521 C3.95162126,26.4839256 3.04080164,23.1594627 3.04080164,19.3525134 C3.04080164,18.8820592 3.05658918,18.4079954 3.09059312,17.9459636 C3.13309803,17.3395469 2.67040167,16.8137451 2.05833089,16.7728361 C2.03161351,16.7704296 2.00611056,16.7692264 1.98182204,16.7692264 C1.40375519,16.7692264 0.915555877,17.2144133 0.874265388,17.7931562 C0.839047029,18.3045195 0.819616211,18.8243052 0.819616211,19.3525134 C0.819616211,23.775505 1.95146139,27.482588 3.87754126,30.4244309" id="Fill-475" fill="#009D49"></path>
                                <path d="M33.5621241,29.7746988 C33.3629582,30.1452867 32.9804139,30.3534417 32.5820821,30.3534417 C32.4072048,30.3534417 32.2286841,30.3113294 32.0635222,30.2246985 C31.5218881,29.9419446 31.3154357,29.2741643 31.6056835,28.7387369 C31.6688337,28.6196193 31.7307694,28.4992986 31.7927051,28.3777746 L29.9734948,27.754513 C29.5897361,28.5137371 29.1525427,29.2128008 28.6619145,29.8444848 C28.4433178,30.1260354 28.1142083,30.27403 27.7814556,30.27403 C27.5446425,30.27403 27.3078294,30.1994311 27.1062346,30.0466237 C26.6192497,29.6760357 26.5269533,28.9865977 26.902211,28.5041114 C27.63451,27.5571869 28.1943605,26.4730968 28.6145519,25.3132045 C28.6521991,25.2085254 28.6874175,25.1038464 28.7238503,24.9991673 L34.7194722,27.0518397 C34.4182945,27.9951545 34.0296781,28.9059828 33.5621241,29.7746988" id="Fill-476" fill="#DD3B41"></path>
                                <path d="M8.73755329,25.3413596 C8.5711769,24.8985791 8.14734218,24.625451 7.69921892,24.625451 C7.57048975,24.625451 7.44054615,24.6483119 7.31181698,24.695237 C6.73860784,24.9057984 6.44350228,25.5386856 6.65724129,26.1078029 C8.55296051,31.1672914 13.1774953,34.3112732 18.7322805,34.3112732 C18.8889415,34.3112732 19.0456025,34.3088668 19.1998346,34.3064604 C19.8119054,34.2908186 20.2964614,33.783065 20.2794594,33.1766483 C20.2624575,32.5798573 19.7694005,32.1045902 19.1694739,32.1045902 L19.1694739,32.1069966 C19.0383159,32.109403 18.8682963,32.1118095 18.7322805,32.1118095 C14.0834572,32.1118095 10.2810889,29.4683621 8.73755329,25.3413596" id="Fill-477" fill="#1A1918"></path>
                                <path d="M30.5854441,19.2054814 L17.2619748,19.2054814 C16.6474751,19.2054814 16.1519893,19.6975934 16.1519893,20.3052133 C16.1519893,20.9140364 16.6474751,21.4061484 17.2619748,21.4061484 L30.5854441,21.4061484 C31.1975149,21.4061484 31.6930008,20.9140364 31.6930008,20.3052133 C31.6930008,19.6975934 31.1975149,19.2054814 30.5854441,19.2054814" id="Fill-478" fill="#0079B3"></path>
                                <path d="M21.3466971,15.8320479 L27.6872161,15.8320479 C27.6131361,13.3377983 26.7861119,11.1299121 25.1915703,9.51159773 C24.7640923,9.07603654 24.7738078,8.37937926 25.2158589,7.95585014 C25.4308123,7.74889841 25.7089159,7.64421934 25.9882339,7.64421934 C26.2784818,7.64421934 26.5675152,7.75732087 26.7861119,7.97991429 C28.7352659,9.97242629 29.8148907,12.6652052 29.9071871,15.7694811 C29.9241891,16.3626625 29.6983058,16.9402022 29.2805432,17.3661378 C28.8615662,17.7920733 28.2871426,18.0327149 27.6872161,18.0327149 L21.3770578,18.0327149 C20.7637726,18.0327149 20.2670723,17.5393997 20.2670723,16.932983 C20.2670723,16.3253631 20.7321975,15.8320479 21.3466971,15.8320479" id="Fill-487" fill="#1A1918"></path>
                                <path d="M16.9326224,4.65304493 C17.5021883,4.65304493 17.9879587,5.08860612 18.0353214,5.66253621 C18.0851128,6.26895291 17.6321319,6.79956751 17.0200611,6.84889903 C11.8927539,7.27002174 8.72310161,11.2430137 8.26040525,15.3964867 C8.19725509,15.9571815 7.71998561,16.3434112 7.16256401,16.3434112 C7.12005909,16.3434112 7.07755418,16.3410048 7.03747811,16.3349888 C6.42783619,16.2676091 5.98821392,15.722556 6.05743621,15.1185457 C6.7071542,9.42135715 11.2333205,5.1162799 16.9326224,4.65304493" id="Fill-488" fill="#1A1918"></path>
                            </g>
                            <g id="Group-6" transform="translate(157.875400, 9.625662)">
                                <path d="M17.8292332,0.727339072 L17.8195178,0.727339072 L17.8146601,0.727339072 C17.2025893,0.727339072 16.7046746,1.21945103 16.7071035,1.82707094 C16.7071035,2.43469084 17.2050182,2.9268028 17.817089,2.9268028 L17.8292332,2.9268028 C18.4437329,2.92559959 18.9416476,2.43348763 18.9416476,1.82586773 C18.9416476,1.21945103 18.4437329,0.727339072 17.8316621,0.727339072 L17.8292332,0.727339072 L17.8292332,0.727339072 Z" id="Fill-479" fill="#DD3B41"></path>
                                <path d="M3.07346971,18.0104555 C3.35764543,13.8750306 4.91696861,10.17637 7.5632032,7.40778902 C7.9858235,6.96741499 7.96639268,6.27196092 7.52312713,5.85324464 C7.30695928,5.65230894 7.03249897,5.5524427 6.75925308,5.5524427 C6.46536195,5.5524427 6.17147082,5.66674744 5.95287412,5.89535691 C3.11111692,8.86727999 1.18260819,12.9882665 0.858356405,17.862461 C0.81585149,18.4676745 1.27733343,18.9946794 1.88940421,19.0355885 C1.91612158,19.0367917 1.94162453,19.0379949 1.96591306,19.0379949 C2.54397991,19.0379949 3.03339365,18.5916049 3.07346971,18.0104555" id="Fill-480" fill="#1A1918"></path>
                                <path d="M3.96291542,30.5678533 C6.48892182,34.412102 10.2718593,36.8209239 14.6583666,37.7678483 C14.7360898,37.7846933 14.8308151,37.7967253 14.9097528,37.7967253 C15.4198118,37.7967253 15.8800793,37.4441855 15.990592,36.931619 C16.1217501,36.3372344 15.7416347,35.750069 15.144137,35.6201225 C11.2470435,34.7670483 7.94501878,32.5940551 5.82220186,29.3694584 C5.61089171,29.0445923 5.25506485,28.8701272 4.89316586,28.8701272 C4.68428456,28.8701272 4.47540326,28.926678 4.28838163,29.0469987 C3.77589379,29.3802873 3.62894823,30.0576932 3.96291542,30.5678533" id="Fill-481" fill="#1A1918"></path>
                                <path d="M9.28550237,30.3657144 C11.6815652,32.8780121 15.063742,34.3110325 18.7191647,34.3110325 C20.720539,34.3110325 22.5421783,33.9729312 24.1367198,33.3075573 C24.7002135,33.0729318 24.9661729,32.4268092 24.7269309,31.8673176 C24.5484103,31.4461949 24.1367198,31.1947245 23.7043841,31.1947245 C23.5598674,31.1947245 23.4153507,31.2211951 23.2756916,31.2825587 C22.0066163,31.8083605 20.4946558,32.1115688 18.7191647,32.1115688 C15.5859452,32.1115688 12.8389133,30.9107675 10.9055469,28.8641112 C10.6869501,28.6342985 10.3906302,28.5163841 10.0943102,28.5163841 C9.82349315,28.5163841 9.54903284,28.6150472 9.33529384,28.8123732 C8.88959944,29.2274799 8.86531092,29.922934 9.28550237,30.3657144" id="Fill-482" fill="#1A1918"></path>
                                <path d="M26.4321067,21.4062687 C27.0441774,21.4062687 27.5420922,20.9141567 27.5420922,20.3053336 C27.5420922,19.6977137 27.0441774,19.2056018 26.4321067,19.2056018 L13.0515593,19.2056018 C12.4382741,19.2056018 11.9415738,19.6977137 11.9415738,20.3053336 C11.9415738,20.9141567 12.4382741,21.4062687 13.0515593,21.4062687 L26.4321067,21.4062687 L26.4321067,21.4062687 Z" id="Fill-483" fill="#1A1918"></path>
                                <path d="M34.7956167,16.4864726 C34.3049885,11.5557273 32.4287001,7.47083711 29.3549875,4.70947537 C29.1436774,4.51816534 28.8752892,4.42551835 28.6093299,4.42551835 C28.3081522,4.42551835 28.0069745,4.54704233 27.7871634,4.78648066 C27.3766873,5.23768356 27.4119057,5.93313763 27.8648866,6.34102505 C30.4953337,8.71254748 32.1481677,12.3173578 32.5853611,16.70305 C32.644868,17.2709641 33.1257807,17.6956964 33.6904889,17.6956964 C33.7257073,17.6956964 33.7633545,17.69329 33.7997872,17.6896803 C34.4094292,17.6307232 34.8575524,17.0916861 34.7956167,16.4864726" id="Fill-484" fill="#009D49"></path>
                                <path d="M27.6750718,15.8320479 L27.6750718,15.8320479 L16.4489165,15.8320479 C15.8368457,15.8320479 15.338931,16.3253631 15.338931,16.932983 C15.338931,17.5393997 15.8368457,18.0327149 16.4489165,18.0327149 L27.6750718,18.0327149 C28.2725695,18.0327149 28.8494219,17.7920733 29.2671845,17.3661378 C29.6861615,16.9402022 29.9120448,16.3626625 29.892614,15.7694811 C29.8695399,14.8983587 29.7626704,14.0464877 29.5768632,13.2343224 C29.4614927,12.7229592 29.003654,12.3752321 28.4960239,12.3752321 C28.4146574,12.3752321 28.3320764,12.3848578 28.2519243,12.4017027 C27.6532122,12.536462 27.2767401,13.1224241 27.4115414,13.7144023 C27.5487715,14.3280383 27.672643,15.1450163 27.6750718,15.8320479" id="Fill-485" fill="#0079B3"></path>
                                <path d="M17.3761308,4.62837917 C17.966342,4.62837917 18.4581845,5.08680131 18.4836875,5.6763731 C18.5104049,6.28278979 18.0355642,6.79655949 17.4234935,6.82303006 C12.2002466,7.0468267 8.91765268,10.8850594 8.29586649,15.0144683 C8.21328552,15.5595214 7.74087374,15.9517671 7.2004541,15.9517671 C7.14580493,15.9517671 7.0887269,15.9469543 7.03407772,15.9373286 C6.4292935,15.8482912 6.01031647,15.2875964 6.10261286,14.688399 C6.95635445,9.0393387 11.5978912,4.90391374 17.3761308,4.62837917" id="Fill-489" fill="#1A1918"></path>
                                <path d="M26.4511732,34.0458456 C29.0318287,32.553868 31.3258797,30.0487895 32.7346141,26.3778027 L34.7056277,27.051599 C33.5312776,30.7153666 31.0769224,33.9231184 27.5684452,35.9469138 C27.3923534,36.0479832 27.2004741,36.0949083 27.0110236,36.0949083 C26.6284794,36.0949083 26.256865,35.8999887 26.0504125,35.5474488 C25.7419483,35.0240534 25.9216834,34.3490539 26.4511732,34.0458456" id="Fill-490" fill="#1A1918"></path>
                            </g>
                        </g>
                    </g>
                </g>
            </g>
        </g>
    </g>
</svg>